<svg xmlns="http://www.w3.org/2000/svg" viewBox="0 0 920 260" role="img" aria-labelledby="title desc">
  <title id="title">MangoMagic logo card</title>
  <desc id="desc">The MangoMagic logo on a Navy card with a Mango Gold left rule.</desc>
  <rect width="920" height="260" rx="8" fill="#111527"/>
  <rect x="0" y="0" width="14" height="260" fill="#F1AB1C"/>
  <rect x="28" y="28" width="864" height="204" rx="4" fill="none" stroke="#C9B98A" stroke-width="2"/>
  <svg x="128" y="68" width="664" height="142" viewBox="345 194 7301.15 1552" aria-hidden="true">
    <path fill="#F1AB1C" d="M379 228 L379 1712 L1655 969 L1134 665 C1095.1 660.7 1057.8 666.7 1026 691 C1019.8 695.7 994.8 714.4 999 724 C999.4 725 1022.9 743.9 1025 746 C1042.1 763.1 1058.1 782.6 1068 805 C1106.9 892.5 1092 993 1050 1077 C992.1 1192.9 860.5 1294.7 732 1315 C674.2 1324.1 605.6 1331.6 560 1286 C507.9 1233.9 561.1 1149.6 582 1096 C592.3 1069.4 593.9 1041.5 600 1014 C602.1 1004.7 604.5 996.7 605 987 C606.4 962.7 607 938 611 914 C623.5 838.7 662.5 758 729 716 C775.3 686.8 828.6 674 883 680 C901.4 682 920 684.4 937 692 C943.6 694.9 956.3 702.6 964 699 C972.3 695.1 976.1 680.6 979 673 C995.2 631.3 990.3 600.1 963 565 Z"/>
    <g fill="#FFFFFF">
      <path d="M105 0V700H187L479 208L767 700H849L850 0H754L753 511L500 85H454L201 507V0Z" transform="translate(1787.40,1253.48) scale(0.80994,-0.80994) translate(0,0)"/>
      <path d="M420 0V69Q396 34 352.0 14.0Q308 -6 246 -6Q156 -6 103.0 37.5Q50 81 50 150Q50 193 70.5 228.0Q91 263 137.5 284.0Q184 305 263 305H415V324Q415 385 379.5 418.5Q344 452 273 452Q226 452 181.0 436.5Q136 421 105 395L65 467Q106 500 163.5 517.5Q221 535 284 535Q393 535 452.0 481.5Q511 428 511 320V0ZM415 162V236H267Q195 236 170.0 212.0Q145 188 145 154Q145 114 176.0 91.0Q207 68 262 68Q316 68 356.5 92.0Q397 116 415 162Z" transform="translate(1787.40,1253.48) scale(0.80994,-0.80994) translate(955,0)"/>
      <path d="M91 0V530H183V450Q213 491 262.0 513.0Q311 535 374 535Q438 535 488.0 510.0Q538 485 566.0 434.0Q594 383 594 305V0H498V294Q498 372 460.5 410.5Q423 449 355 449Q279 449 233.0 404.0Q187 359 187 273V0Z" transform="translate(1787.40,1253.48) scale(0.80994,-0.80994) translate(1553,0)"/>
      <path d="M323 -200Q250 -200 181.5 -180.0Q113 -160 70 -121L116 -47Q153 -79 207.0 -97.5Q261 -116 320 -116Q414 -116 458.0 -72.0Q502 -28 502 62V104Q468 63 418.5 42.5Q369 22 311 22Q235 22 174.0 54.5Q113 87 77.5 145.0Q42 203 42 279Q42 356 77.5 413.5Q113 471 174.0 503.0Q235 535 311 535Q370 535 421.0 513.5Q472 492 507 449V530H598V72Q598 -68 528.0 -134.0Q458 -200 323 -200ZM322 106Q375 106 416.0 128.0Q457 150 480.5 189.0Q504 228 504 279Q504 330 480.5 369.0Q457 408 416.0 429.5Q375 451 322 451Q268 451 227.0 429.5Q186 408 162.5 369.0Q139 330 139 279Q139 228 162.5 189.0Q186 150 227.0 128.0Q268 106 322 106Z" transform="translate(1787.40,1253.48) scale(0.80994,-0.80994) translate(2234,0)"/>
      <path d="M318 -6Q238 -6 176.0 29.0Q114 64 78.0 125.0Q42 186 42 265Q42 344 78.0 405.0Q114 466 176.0 500.5Q238 535 318 535Q397 535 459.5 500.5Q522 466 557.5 405.0Q593 344 593 265Q593 186 557.5 125.0Q522 64 459.5 29.0Q397 -6 318 -6ZM318 78Q369 78 409.5 101.5Q450 125 473.0 167.0Q496 209 496 265Q496 321 473.0 363.0Q450 405 409.5 428.0Q369 451 318 451Q267 451 226.5 428.0Q186 405 162.5 363.0Q139 321 139 265Q139 209 162.5 167.0Q186 125 226.5 101.5Q267 78 318 78Z" transform="translate(1787.40,1253.48) scale(0.80994,-0.80994) translate(2924,0)"/>
      <path d="M105 0V700H187L479 208L767 700H849L850 0H754L753 511L500 85H454L201 507V0Z" transform="translate(1787.40,1253.48) scale(0.80994,-0.80994) translate(3559,0)"/>
      <path d="M420 0V69Q396 34 352.0 14.0Q308 -6 246 -6Q156 -6 103.0 37.5Q50 81 50 150Q50 193 70.5 228.0Q91 263 137.5 284.0Q184 305 263 305H415V324Q415 385 379.5 418.5Q344 452 273 452Q226 452 181.0 436.5Q136 421 105 395L65 467Q106 500 163.5 517.5Q221 535 284 535Q393 535 452.0 481.5Q511 428 511 320V0ZM415 162V236H267Q195 236 170.0 212.0Q145 188 145 154Q145 114 176.0 91.0Q207 68 262 68Q316 68 356.5 92.0Q397 116 415 162Z" transform="translate(1787.40,1253.48) scale(0.80994,-0.80994) translate(4514,0)"/>
      <path d="M323 -200Q250 -200 181.5 -180.0Q113 -160 70 -121L116 -47Q153 -79 207.0 -97.5Q261 -116 320 -116Q414 -116 458.0 -72.0Q502 -28 502 62V104Q468 63 418.5 42.5Q369 22 311 22Q235 22 174.0 54.5Q113 87 77.5 145.0Q42 203 42 279Q42 356 77.5 413.5Q113 471 174.0 503.0Q235 535 311 535Q370 535 421.0 513.5Q472 492 507 449V530H598V72Q598 -68 528.0 -134.0Q458 -200 323 -200ZM322 106Q375 106 416.0 128.0Q457 150 480.5 189.0Q504 228 504 279Q504 330 480.5 369.0Q457 408 416.0 429.5Q375 451 322 451Q268 451 227.0 429.5Q186 408 162.5 369.0Q139 330 139 279Q139 228 162.5 189.0Q186 150 227.0 128.0Q268 106 322 106Z" transform="translate(1787.40,1253.48) scale(0.80994,-0.80994) translate(5112,0)"/>
      <path d="M91 0V530H187V0ZM139 632Q111 632 92.5 650.0Q74 668 74 694Q74 720 92.5 738.5Q111 757 139 757Q167 757 185.5 739.5Q204 722 204 696Q204 669 185.5 650.5Q167 632 139 632Z" transform="translate(1787.40,1253.48) scale(0.80994,-0.80994) translate(5802,0)"/>
      <path d="M322 -6Q240 -6 177.0 29.0Q114 64 78.0 125.0Q42 186 42 265Q42 344 78.0 405.0Q114 466 177.0 500.5Q240 535 322 535Q393 535 450.0 506.5Q507 478 538 422L465 375Q439 414 401.5 432.5Q364 451 321 451Q269 451 228.0 428.0Q187 405 163.0 363.5Q139 322 139 265Q139 208 163.0 166.0Q187 124 228.0 101.0Q269 78 321 78Q364 78 401.5 96.5Q439 115 465 154L538 108Q507 53 450.0 23.5Q393 -6 322 -6Z" transform="translate(1787.40,1253.48) scale(0.80994,-0.80994) translate(6081,0)"/>
      <path d="M439 285V700H498L683 416L864 700H923L924 285H855L854 575L698 334H665L508 570V285ZM155 285V641H4V700H378V641H227V285Z" transform="translate(7199.44,970.00) scale(0.40497,-0.40497)"/>
    </g>
  </svg>
</svg>
